<?xml version="1.0" standalone="no"?>
<!DOCTYPE svg PUBLIC "-//W3C//DTD SVG 20010904//EN"
 "http://www.w3.org/TR/2001/REC-SVG-20010904/DTD/svg10.dtd">
<svg version="1.0" xmlns="http://www.w3.org/2000/svg"
 width="1039.000000pt" height="1039.000000pt" viewBox="0 0 1039.000000 1039.000000"
 preserveAspectRatio="xMidYMid meet">
<metadata>
Created by potrace 1.11, written by Peter Selinger 2001-2013
</metadata>
<g transform="translate(0.000000,1039.000000) scale(0.100000,-0.100000)"
fill="#000000" stroke="none">
<path d="M90 5180 l0 -3960 1095 0 1095 0 0 310 0 310 -200 0 -200 0 0 1833
c0 1049 4 1826 9 1817 5 -8 76 -186 159 -395 82 -209 317 -805 522 -1325 205
-520 435 -1102 511 -1295 76 -192 196 -496 266 -675 l129 -325 512 -3 512 -2
-2 3657 -3 3658 -610 0 -610 0 -5 -1903 -5 -1903 -732 1748 c-403 961 -735
1756 -739 1766 -6 16 10 17 240 17 l246 0 0 315 0 314 -1095 1 -1095 0 0
-3960z"/>
<path d="M7890 8647 c0 -164 -4 -297 -8 -297 -4 0 -32 16 -62 35 -236 152
-558 267 -918 326 -247 40 -291 42 -1309 46 l-993 4 0 -3650 0 -3651 735 0
735 0 0 1685 0 1686 126 -3 126 -3 80 -320 c43 -176 82 -327 85 -335 3 -8 7
-24 9 -35 1 -11 146 -598 322 -1305 176 -707 324 -1303 329 -1325 l9 -40 367
-3 367 -2 0 -152 0 -151 153 7 c527 24 949 168 1219 416 208 190 369 521 452
925 54 262 67 440 75 1065 9 595 7 584 71 710 62 122 170 183 352 198 l83 7 3
566 2 566 -55 7 c-183 21 -284 124 -373 376 -68 195 -82 350 -82 924 0 551
-16 762 -77 1021 -75 321 -198 544 -374 680 -257 200 -633 296 -1216 312
l-233 6 0 -296z m410 -622 c52 -14 113 -37 136 -50 47 -28 128 -119 149 -167
53 -129 74 -330 75 -738 1 -533 99 -1110 243 -1438 105 -238 243 -422 416
-552 l33 -26 -67 -43 c-148 -96 -263 -216 -370 -386 -88 -141 -141 -289 -190
-531 -37 -178 -53 -348 -65 -644 -11 -301 -27 -559 -40 -671 -9 -79 -57 -279
-85 -358 -18 -53 -104 -176 -115 -164 -10 11 -272 805 -460 1398 -21 66 -73
228 -115 360 -155 482 -305 960 -305 972 0 7 42 33 93 59 240 120 472 318 603
515 155 233 257 578 285 964 14 187 6 573 -16 715 -41 281 -130 530 -261 733
-40 62 -48 77 -41 77 1 0 45 -11 97 -25z m-1568 -373 c175 -86 274 -301 326
-709 20 -149 8 -424 -23 -570 -62 -284 -114 -402 -230 -518 -126 -126 -137
-129 -467 -133 l-268 -3 0 986 0 986 298 -3 297 -3 67 -33z"/>
</g>
</svg>
